<svg id="regular" enable-background="new 0 0 24 24" height="512" viewBox="0 0 24 24" width="512" xmlns="http://www.w3.org/2000/svg"><path d="m17.631 2.782c.034 1.32.952 2.631 2.685 2.631 1.621 0 2.691-1.216 2.691-2.706 0-1.345-.925-2.707-2.692-2.707-.958 0-1.836.428-2.335 1.321l-4.297-1.289c-.414-.123-.835.123-.941.527l-1.923 7.31c-2.236.16-4.278.777-5.951 1.709-2.77-2.595-6.557 1.633-4.091 4.562-1.774 5.542 4.594 9.86 11.223 9.86 6.681 0 12.974-4.39 11.223-9.86 2.458-2.919-1.301-7.154-4.095-4.564-1.87-1.04-4.206-1.678-6.75-1.736l1.617-6.148zm2.684-1.282c.879 0 1.191.65 1.191 1.208 0 .667-.409 1.206-1.191 1.206-.88 0-1.191-.65-1.191-1.208 0-.674.412-1.206 1.191-1.206zm-16.784 8.955c-.793.607-1.455 1.297-1.957 2.052-.38-1.412.839-2.632 1.957-2.052zm8.469 12.045c-8.943 0-13.396-7.182-6.982-11.298.422-.194 2.664-1.876 6.982-1.876 3.756 0 5.474 1.184 6.98 1.875 6.39 4.099 2.018 11.299-6.98 11.299zm10.426-9.992c-.502-.756-1.164-1.446-1.958-2.053 1.141-.589 2.335.654 1.958 2.053z"/><path d="m10.305 14.935c0-1.321-.998-2.206-2.217-2.206-1.076 0-2.219.773-2.219 2.206 0 1.32.996 2.206 2.217 2.206 1.076 0 2.219-.773 2.219-2.206zm-2.936 0c0-.655.55-.706.719-.706.403 0 .717.229.717.706 0 .655-.55.706-.719.706-.168 0-.717-.051-.717-.706z"/><path d="m15.914 12.729c-1.076 0-2.219.773-2.219 2.206 0 1.32.996 2.206 2.217 2.206 1.076 0 2.219-.773 2.219-2.206 0-1.321-.998-2.206-2.217-2.206zm-.002 2.912c-.168 0-.717-.051-.717-.706s.55-.706.719-.706c.403 0 .717.229.717.706 0 .655-.55.706-.719.706z"/><path d="m15.297 18.42c-1.106 1.517-5.454 1.536-6.593.001-.56-.812-1.786.023-1.241.842 1.591 2.402 7.483 2.403 9.074 0 .536-.803-.667-1.64-1.24-.843z"/></svg>