#define bullet_width 9
#define bullet_height 9
static char bullet_bits[] = {
  0x19, 0x00, 0x33, 0x00, 0x67, 0x00, 0xCF, 0x00, 0x9F, 0x01, 0xCF, 0x00, 
  0x67, 0x00, 0x33, 0x00, 0x19, 0x00, };
